<?xml version="1.0" encoding="UTF-8" standalone="no"?>
<svg
   xmlns:dc="http://purl.org/dc/elements/1.1/"
   xmlns:cc="http://creativecommons.org/ns#"
   xmlns:rdf="http://www.w3.org/1999/02/22-rdf-syntax-ns#"
   xmlns:svg="http://www.w3.org/2000/svg"
   xmlns="http://www.w3.org/2000/svg"
   xmlns:sodipodi="http://sodipodi.sourceforge.net/DTD/sodipodi-0.dtd"
   xmlns:inkscape="http://www.inkscape.org/namespaces/inkscape"
   version="1.1"
   id="svg2"
   width="372"
   height="49"
   viewBox="0 0 372 49"
   sodipodi:docname="ubuntu-MATE-logo-hicolor.svg"
   inkscape:version="1.0.2 (e86c870879, 2021-01-15)"
   inkscape:export-filename="/home/muqtadir/ubuntu-bgrt-themes/ubuntu-logos/SVG/ubuntu-logo-hicolor2.png"
   inkscape:export-xdpi="96"
   inkscape:export-ydpi="96">
  <metadata
     id="metadata8">
    <rdf:RDF>
      <cc:Work
         rdf:about="">
        <dc:format>image/svg+xml</dc:format>
        <dc:type
           rdf:resource="http://purl.org/dc/dcmitype/StillImage" />
        <dc:title></dc:title>
      </cc:Work>
    </rdf:RDF>
  </metadata>
  <defs
     id="defs6" />
  <sodipodi:namedview
     pagecolor="#1d1d1d"
     bordercolor="#666666"
     borderopacity="1"
     objecttolerance="10"
     gridtolerance="10"
     guidetolerance="10"
     inkscape:pageopacity="0"
     inkscape:pageshadow="2"
     inkscape:window-width="1366"
     inkscape:window-height="704"
     id="namedview4"
     showgrid="true"
     inkscape:zoom="1.3845531"
     inkscape:cx="227.06157"
     inkscape:cy="31.415775"
     inkscape:window-x="0"
     inkscape:window-y="27"
     inkscape:window-maximized="1"
     inkscape:current-layer="g10"
     inkscape:document-rotation="0">
    <inkscape:grid
       type="xygrid"
       id="grid888" />
  </sodipodi:namedview>
  <g
     inkscape:groupmode="layer"
     inkscape:label="Image"
     id="g10">
    <g
       id="g6455"
       transform="translate(822.24646,-573.19078)">
      <path
         id="path3171-7-3-3-8-7-0-9-6-6-3"
         transform="translate(-822.24649,573.1908)"
         d="m 359.21875,0 c -7.06487,0 -12.8125,5.7162 -12.8125,12.78125 0,7.0646 5.74763,12.8125 12.8125,12.8125 C 366.28352,25.59375 372,19.84576 372,12.78125 372,5.7162 366.28352,0 359.21875,0 Z m 2.125,3.46875 4.96875,2.9375 -4.96875,2.9375 z m -2.125,1.5 c 0.36444,0 0.71176,0.0138 1.0625,0.0625 V 6.125 c -0.34881,-0.0564 -0.69699,-0.09375 -1.0625,-0.09375 -2.84145,0 -5.28441,1.77181 -6.28125,4.25 l -0.90625,-0.5625 c 1.19679,-2.78991 3.96624,-4.75 7.1875,-4.75 z m 0,2.65625 c 0.36492,0 0.71811,0.0518 1.0625,0.125 v 1.09375 c -0.33987,-0.0909 -0.69353,-0.125 -1.0625,-0.125 -1.86605,0 -3.44727,1.23489 -3.9375,2.9375 l -0.9375,-0.5625 c 0.70641,-2.00995 2.63122,-3.46875 4.875,-3.46875 z m 6.25,0.5 c 0.97301,1.30448 1.5625,2.90902 1.5625,4.65625 0,1.77446 -0.59281,3.43527 -1.59375,4.75 L 364.5,16.96875 c 0.90726,-1.14851 1.46875,-2.60511 1.46875,-4.1875 0,-1.55267 -0.52949,-2.95565 -1.40625,-4.09375 z m -2.3125,1.375 c 0.74963,0.89663 1.21875,2.02875 1.21875,3.28125 0,1.2808 -0.4699,2.46957 -1.25,3.375 l -0.96875,-0.5625 c 0.694,-0.72884 1.125,-1.71953 1.125,-2.8125 0,-1.06193 -0.4037,-2.02556 -1.0625,-2.75 z m -13,0.34375 4.96875,2.9375 -4.96875,2.9375 z m 5.125,4.09375 c 0.49023,1.70127 2.07145,2.9375 3.9375,2.9375 0.36904,0 0.72254,-0.06695 1.0625,-0.15625 v 1.125 c -0.34439,0.0732 -0.69758,0.125 -1.0625,0.125 -2.24551,0 -4.17009,-1.45635 -4.875,-3.46875 z m -2.34375,1.375 c 0.99684,2.47819 3.4398,4.21875 6.28125,4.21875 0.36196,0 0.71673,-0.0079 1.0625,-0.0625 v 1.0625 c -0.34655,0.0482 -0.70242,0.09375 -1.0625,0.09375 -3.22126,0 -5.99071,-1.96008 -7.1875,-4.75 z m 8.40625,1.03125 4.96875,2.9375 -4.96875,2.9375 z"
         style="fill:#ffffff;fill-opacity:1" />
      <g
         id="text3468-6"
         style="font-style:normal;font-variant:normal;font-weight:300;font-stretch:normal;font-size:64.4172px;line-height:125%;font-family:'Source Sans Pro';-inkscape-font-specification:'Source Sans Pro Light';text-align:center;letter-spacing:0px;word-spacing:0px;text-anchor:middle;fill:#ffffff;fill-opacity:1;stroke:none">
        <path
           id="path6329"
           style="font-weight:bold;-inkscape-font-specification:'Source Sans Pro Bold';fill:#ffffff"
           d="m -627.22483,621.1908 h 8.69631 v -15.39571 c 0,-4.12269 -0.70859,-10.24233 -1.1595,-14.30061 h 0.25766 l 3.3497,9.72699 6.44171,16.29755 h 3.80062 l 6.44172,-16.29755 3.47852,-9.72699 h 0.25767 c -0.45092,4.05828 -1.22392,10.17792 -1.22392,14.30061 v 15.39571 h 8.82515 v -42 h -9.98466 l -6.82822,18.87423 -2.51227,7.34356 h -0.25767 l -2.51227,-7.34356 -7.02148,-18.87423 h -10.04907 v 42" />
        <path
           id="path6331"
           style="font-weight:bold;-inkscape-font-specification:'Source Sans Pro Bold';fill:#ffffff"
           d="m -569.33191,603.79816 1.03068,-3.86503 c 1.1595,-4.18711 2.2546,-9.08283 3.28527,-13.52761 h 0.25767 c 1.09509,4.38036 2.2546,9.3405 3.41411,13.52761 l 0.96626,3.86503 h -8.95399 m 13.46319,17.39264 h 10.04908 l -13.1411,-42 h -11.40184 l -13.14111,42 h 9.66258 l 2.57669,-9.98467 h 12.81901 l 2.57669,9.98467" />
        <path
           id="path6333"
           style="font-weight:bold;-inkscape-font-specification:'Source Sans Pro Bold';fill:#ffffff"
           d="m -535.62865,621.1908 h 9.53375 v -34.01227 h 11.53067 v -7.98773 h -32.59509 v 7.98773 h 11.53067 v 34.01227" />
        <path
           id="path6335"
           style="font-weight:bold;-inkscape-font-specification:'Source Sans Pro Bold';fill:#ffffff"
           d="m -507.9524,621.1908 h 26.92638 v -7.98773 h -17.45706 v -9.66258 h 14.30061 v -7.92331 h -14.30061 v -8.43865 h 16.81288 v -7.98773 h -26.2822 v 42" />
      </g>
      <g
         style="fill:#ffffff;fill-opacity:1"
         transform="matrix(0.28222345,0,0,0.28222345,-635.42871,444.58814)"
         id="g17296-6-9-7-0-8-7">
        <path
           style="fill:#ffffff;fill-opacity:1"
           inkscape:connector-curvature="0"
           d="m -571.29888,619.92674 c -4.606,1.153 -10.684,2.375 -18.238,3.669 -7.555,1.296 -16.296,1.942 -26.225,1.942 -8.633,0 -15.901,-1.261 -21.799,-3.775 -5.902,-2.516 -10.65,-6.079 -14.245,-10.685 -3.599,-4.604 -6.188,-10.037 -7.77,-16.296 -1.585,-6.259 -2.374,-13.198 -2.374,-20.827 v -63.023 h 20.073 v 58.706 c 0,13.672 2.158,23.456 6.476,29.354 4.316,5.902 11.581,8.851 21.799,8.851 2.158,0 4.387,-0.072 6.691,-0.218 2.3,-0.141 4.458,-0.323 6.475,-0.539 2.013,-0.216 3.848,-0.431 5.504,-0.646 1.652,-0.216 2.839,-0.465 3.561,-0.755 v -94.753 h 20.073 v 108.995 z"
           id="path8714-8-4-2-7-7-8-5" />
        <path
           style="fill:#ffffff;fill-opacity:1"
           inkscape:connector-curvature="0"
           d="m -522.30588,515.89474 c 2.445,-1.581 6.151,-3.237 11.115,-4.963 4.964,-1.728 10.684,-2.59 17.159,-2.59 8.057,0 15.216,1.438 21.476,4.315 6.259,2.88 11.547,6.907 15.863,12.088 4.317,5.18 7.588,11.368 9.821,18.562 2.229,7.196 3.346,15.107 3.346,23.74 0,9.066 -1.333,17.235 -3.993,24.5 -2.664,7.266 -6.441,13.417 -11.332,18.452 -4.894,5.039 -10.792,8.923 -17.698,11.656 -6.907,2.731 -14.677,4.1 -23.311,4.1 -9.355,0 -17.627,-0.646 -24.821,-1.942 -7.196,-1.295 -13.095,-2.589 -17.698,-3.885 v -160.799 l 20.073,-3.452 z m 0,89.788 c 2.013,0.576 4.856,1.115 8.526,1.617 3.669,0.506 8.235,0.757 13.705,0.757 10.792,0 19.425,-3.562 25.9,-10.684 6.475,-7.124 9.713,-17.231 9.713,-30.327 0,-5.751 -0.577,-11.148 -1.727,-16.187 -1.153,-5.035 -3.021,-9.388 -5.611,-13.057 -2.59,-3.67 -5.936,-6.547 -10.037,-8.635 -4.101,-2.084 -9.032,-3.129 -14.785,-3.129 -5.47,0 -10.505,0.938 -15.108,2.806 -4.607,1.872 -8.131,3.815 -10.576,5.827 z"
           id="path8716-6-4-4-2-4-6-3" />
        <path
           style="fill:#ffffff;fill-opacity:1"
           inkscape:connector-curvature="0"
           d="m -331.50988,619.92674 c -4.607,1.153 -10.684,2.375 -18.238,3.669 -7.555,1.296 -16.295,1.942 -26.224,1.942 -8.634,0 -15.901,-1.261 -21.8,-3.775 -5.902,-2.516 -10.65,-6.079 -14.245,-10.685 -3.599,-4.604 -6.188,-10.037 -7.77,-16.296 -1.585,-6.26 -2.375,-13.199 -2.375,-20.828 v -63.022 h 20.073 v 58.706 c 0,13.672 2.158,23.456 6.475,29.354 4.316,5.902 11.581,8.851 21.799,8.851 2.158,0 4.388,-0.072 6.691,-0.218 2.3,-0.141 4.458,-0.323 6.475,-0.539 2.013,-0.216 3.848,-0.431 5.504,-0.646 1.652,-0.216 2.84,-0.465 3.561,-0.755 v -94.753 h 20.073 v 108.995 z"
           id="path8718-7-1-0-6-9-8-5" />
        <path
           style="fill:#ffffff;fill-opacity:1"
           inkscape:connector-curvature="0"
           d="m -302.59088,514.16874 c 4.604,-1.151 10.717,-2.375 18.347,-3.671 7.625,-1.294 16.402,-1.941 26.33,-1.941 8.922,0 16.33,1.261 22.232,3.776 5.898,2.52 10.609,6.043 14.137,10.576 3.523,4.533 6.006,9.967 7.447,16.296 1.436,6.333 2.158,13.312 2.158,20.937 v 63.023 h -20.074 v -58.708 c 0,-6.905 -0.469,-12.803 -1.402,-17.697 -0.938,-4.89 -2.48,-8.849 -4.641,-11.87 -2.158,-3.023 -5.037,-5.216 -8.633,-6.584 -3.6,-1.367 -8.061,-2.051 -13.381,-2.051 -2.16,0 -4.393,0.074 -6.691,0.216 -2.304,0.145 -4.499,0.325 -6.583,0.541 -2.089,0.215 -3.96,0.469 -5.611,0.755 -1.656,0.29 -2.844,0.506 -3.562,0.646 v 94.751 h -20.073 z"
           id="path8720-5-9-6-9-2-5-6" />
        <path
           style="fill:#ffffff;fill-opacity:1"
           inkscape:connector-curvature="0"
           d="m -165.53688,510.93174 h 42.52 v 16.835 h -42.52 v 51.799 c 0,5.611 0.43,10.253 1.295,13.921 0.863,3.671 2.158,6.549 3.885,8.634 1.727,2.088 3.885,3.562 6.475,4.425 2.59,0.863 5.611,1.296 9.064,1.296 6.186,0 11.08,-0.682 14.678,-2.051 3.594,-1.366 6.043,-2.337 7.338,-2.913 l 4.316,16.403 c -2.016,1.008 -5.578,2.304 -10.684,3.884 -5.109,1.582 -10.898,2.374 -17.375,2.374 -7.627,0 -13.92,-0.97 -18.885,-2.913 -4.965,-1.943 -8.957,-4.856 -11.979,-8.741 -3.021,-3.886 -5.146,-8.668 -6.367,-14.354 -1.225,-5.682 -1.836,-12.264 -1.836,-19.748 v -100.148 l 20.074,-3.453 v 34.75 z"
           id="path8722-1-1-4-4-40-9-2" />
        <path
           style="fill:#ffffff;fill-opacity:1"
           inkscape:connector-curvature="0"
           d="m -13.80688,619.92674 c -4.607,1.153 -10.686,2.375 -18.238,3.669 -7.555,1.296 -16.295,1.942 -26.225,1.942 -8.633,0 -15.9,-1.261 -21.799,-3.775 -5.902,-2.516 -10.65,-6.079 -14.246,-10.685 -3.598,-4.604 -6.188,-10.037 -7.77,-16.296 -1.586,-6.26 -2.375,-13.199 -2.375,-20.828 v -63.022 h 20.074 v 58.706 c 0,13.672 2.158,23.456 6.475,29.354 4.316,5.902 11.58,8.851 21.799,8.851 2.158,0 4.387,-0.072 6.691,-0.218 2.299,-0.141 4.459,-0.323 6.475,-0.539 2.014,-0.216 3.848,-0.431 5.504,-0.646 1.652,-0.216 2.84,-0.465 3.561,-0.755 v -94.753 h 20.074 z"
           id="path8724-9-7-7-9-59-8-9" />
      </g>
    </g>
  </g>
</svg>
